<svg id="レイヤー_1" data-name="レイヤー 1" xmlns="http://www.w3.org/2000/svg" xmlns:xlink="http://www.w3.org/1999/xlink" viewBox="0 0 274 274"><defs><style>.cls-1{fill:none;}.cls-2{clip-path:url(#clip-path);}.cls-3{fill:#ba79a7;}.cls-4{fill:#fff;}</style><clipPath id="clip-path"><rect class="cls-1" width="274" height="274"/></clipPath></defs><title>ico_movie</title><g class="cls-2"><path class="cls-3" d="M223.81-54c0,.2.11.37.11.57V44.19a9.2,9.2,0,0,1-9.2,9.2H58.51a9.2,9.2,0,0,1-9.19-9.2V-53.43c0-.2.1-.37.11-.57H.45V317H49.32V219.94a9.2,9.2,0,0,1,9.19-9.2H214.73a9.2,9.2,0,0,1,9.2,9.2V317h49.94V-54Zm.11,234.87a9.2,9.2,0,0,1-9.2,9.2H58.51a9.2,9.2,0,0,1-9.19-9.2V83.25a9.2,9.2,0,0,1,9.19-9.2H214.73a9.2,9.2,0,0,1,9.2,9.2Z"/><rect class="cls-4" x="10.49" y="-9.5" width="19.52" height="19.52"/><rect class="cls-4" x="10.49" y="19.79" width="19.52" height="19.52"/><rect class="cls-4" x="10.49" y="49.08" width="19.52" height="19.52"/><rect class="cls-4" x="10.49" y="78.37" width="19.52" height="19.52"/><rect class="cls-4" x="10.49" y="107.66" width="19.52" height="19.52"/><rect class="cls-4" x="10.49" y="136.95" width="19.52" height="19.52"/><rect class="cls-4" x="10.49" y="166.23" width="19.52" height="19.52"/><rect class="cls-4" x="10.49" y="195.52" width="19.52" height="19.52"/><rect class="cls-4" x="10.49" y="224.81" width="19.52" height="19.52"/><rect class="cls-4" x="10.49" y="254.1" width="19.52" height="19.52"/><rect class="cls-4" x="244.3" y="-9.5" width="19.52" height="19.52"/><rect class="cls-4" x="244.3" y="19.79" width="19.52" height="19.52"/><rect class="cls-4" x="244.3" y="49.08" width="19.52" height="19.52"/><rect class="cls-4" x="244.3" y="78.37" width="19.52" height="19.52"/><rect class="cls-4" x="244.3" y="107.66" width="19.52" height="19.52"/><rect class="cls-4" x="244.3" y="136.95" width="19.52" height="19.52"/><rect class="cls-4" x="244.3" y="166.23" width="19.52" height="19.52"/><rect class="cls-4" x="244.3" y="195.52" width="19.52" height="19.52"/><rect class="cls-4" x="244.3" y="224.81" width="19.52" height="19.52"/><rect class="cls-4" x="244.3" y="254.1" width="19.52" height="19.52"/><path class="cls-3" d="M123.36,101.73c-7.85-3.71-14.27.37-14.27,9v42.82c0,8.67,6.42,12.73,14.27,9l50.33-23.73c7.85-3.69,7.83-9.75,0-13.45Z"/></g></svg>