<svg id="レイヤー_2" data-name="レイヤー 2" xmlns="http://www.w3.org/2000/svg" xmlns:xlink="http://www.w3.org/1999/xlink" viewBox="0 0 274 274"><defs><style>.cls-1{mask:url(#mask);filter:url(#luminosity-noclip-4);}.cls-2,.cls-4,.cls-6{mix-blend-mode:multiply;}.cls-2{fill:url(#名称未設定グラデーション_38);}.cls-3{mask:url(#mask-2);filter:url(#luminosity-noclip-5);}.cls-4{fill:url(#名称未設定グラデーション_38-2);}.cls-5{mask:url(#mask-3);filter:url(#luminosity-noclip-6);}.cls-6{fill:url(#名称未設定グラデーション_38-3);}.cls-7{fill:#5b5658;}.cls-8{mask:url(#mask-4);}.cls-10,.cls-12,.cls-13,.cls-14,.cls-16,.cls-9{opacity:0.6;}.cls-9{fill:url(#名称未設定グラデーション_9);}.cls-10{fill:url(#名称未設定グラデーション_6);}.cls-11{mask:url(#mask-5);}.cls-12{fill:url(#名称未設定グラデーション_9-2);}.cls-13{fill:url(#名称未設定グラデーション_6-2);}.cls-14{fill:url(#名称未設定グラデーション_6-3);}.cls-15{mask:url(#mask-6);}.cls-16{fill:url(#名称未設定グラデーション_9-3);}.cls-17{filter:url(#luminosity-noclip-3);}.cls-18{filter:url(#luminosity-noclip-2);}.cls-19{filter:url(#luminosity-noclip);}</style><filter id="luminosity-noclip" x="100.18" y="-8321" width="75.16" height="32766" filterUnits="userSpaceOnUse" color-interpolation-filters="sRGB"><feFlood flood-color="#fff" result="bg"/><feBlend in="SourceGraphic" in2="bg"/></filter><mask id="mask" x="100.18" y="-8321" width="75.16" height="32766" maskUnits="userSpaceOnUse"><g class="cls-19"/></mask><linearGradient id="名称未設定グラデーション_38" x1="100.18" y1="88.84" x2="175.34" y2="88.84" gradientUnits="userSpaceOnUse"><stop offset="0" stop-color="gray"/><stop offset="0.5" stop-color="#c2c2c2"/><stop offset="1" stop-color="#fff"/></linearGradient><filter id="luminosity-noclip-2" x="149.35" y="-8321" width="75.06" height="32766" filterUnits="userSpaceOnUse" color-interpolation-filters="sRGB"><feFlood flood-color="#fff" result="bg"/><feBlend in="SourceGraphic" in2="bg"/></filter><mask id="mask-2" x="149.35" y="-8321" width="75.06" height="32766" maskUnits="userSpaceOnUse"><g class="cls-18"/></mask><linearGradient id="名称未設定グラデーション_38-2" x1="149.35" y1="137.95" x2="224.41" y2="137.95" xlink:href="#名称未設定グラデーション_38"/><filter id="luminosity-noclip-3" x="149.49" y="-8321" width="75.16" height="32766" filterUnits="userSpaceOnUse" color-interpolation-filters="sRGB"><feFlood flood-color="#fff" result="bg"/><feBlend in="SourceGraphic" in2="bg"/></filter><mask id="mask-3" x="149.49" y="-8321" width="75.16" height="32766" maskUnits="userSpaceOnUse"><g class="cls-17"/></mask><linearGradient id="名称未設定グラデーション_38-3" x1="149.49" y1="39.53" x2="224.65" y2="39.53" xlink:href="#名称未設定グラデーション_38"/><filter id="luminosity-noclip-4" x="100.18" y="51.31" width="75.16" height="75.06" filterUnits="userSpaceOnUse" color-interpolation-filters="sRGB"><feFlood flood-color="#fff" result="bg"/><feBlend in="SourceGraphic" in2="bg"/></filter><mask id="mask-4" x="100.18" y="51.31" width="75.16" height="75.06" maskUnits="userSpaceOnUse"><g class="cls-1"><path class="cls-2" d="M137.34,126a.43.43,0,0,0,.85,0,43.24,43.24,0,0,1,36.74-36.74.42.42,0,0,0,0-.85,43.24,43.24,0,0,1-36.74-36.74.43.43,0,0,0-.43-.35.42.42,0,0,0-.42.35A43.24,43.24,0,0,1,100.6,88.39a.48.48,0,0,0-.42.42c0,.27.21.38.42.42A43.24,43.24,0,0,1,137.34,126Z"/></g></mask><linearGradient id="名称未設定グラデーション_9" x1="100.18" y1="88.84" x2="175.34" y2="88.84" gradientUnits="userSpaceOnUse"><stop offset="0" stop-color="#d06189"/><stop offset="1" stop-color="#d06189"/></linearGradient><linearGradient id="名称未設定グラデーション_6" x1="100.18" y1="187.07" x2="175.34" y2="187.07" gradientUnits="userSpaceOnUse"><stop offset="0" stop-color="#fff"/><stop offset="0.04" stop-color="#f2eaf1"/><stop offset="0.14" stop-color="#dac3d6"/><stop offset="0.24" stop-color="#c5a2bf"/><stop offset="0.35" stop-color="#b486ac"/><stop offset="0.47" stop-color="#a7719d"/><stop offset="0.6" stop-color="#9e6293"/><stop offset="0.76" stop-color="#995a8d"/><stop offset="1" stop-color="#97578b"/></linearGradient><filter id="luminosity-noclip-5" x="149.35" y="100.37" width="75.06" height="75.16" filterUnits="userSpaceOnUse" color-interpolation-filters="sRGB"><feFlood flood-color="#fff" result="bg"/><feBlend in="SourceGraphic" in2="bg"/></filter><mask id="mask-5" x="149.35" y="100.37" width="75.06" height="75.16" maskUnits="userSpaceOnUse"><g class="cls-3"><path class="cls-4" d="M149.73,137.54a.43.43,0,0,0,0,.85,43.24,43.24,0,0,1,36.74,36.74.42.42,0,0,0,.85,0,43.24,43.24,0,0,1,36.74-36.74.43.43,0,0,0,.35-.43.42.42,0,0,0-.35-.42,43.24,43.24,0,0,1-36.74-36.74.48.48,0,0,0-.42-.42c-.27,0-.38.21-.42.42A43.24,43.24,0,0,1,149.73,137.54Z"/></g></mask><linearGradient id="名称未設定グラデーション_9-2" x1="149.35" y1="137.95" x2="224.41" y2="137.95" xlink:href="#名称未設定グラデーション_9"/><linearGradient id="名称未設定グラデーション_6-2" x1="51.4" y1="235.85" x2="126.56" y2="235.85" xlink:href="#名称未設定グラデーション_6"/><linearGradient id="名称未設定グラデーション_6-3" x1="51.12" y1="137.95" x2="126.18" y2="137.95" xlink:href="#名称未設定グラデーション_6"/><filter id="luminosity-noclip-6" x="149.49" y="2" width="75.16" height="75.06" filterUnits="userSpaceOnUse" color-interpolation-filters="sRGB"><feFlood flood-color="#fff" result="bg"/><feBlend in="SourceGraphic" in2="bg"/></filter><mask id="mask-6" x="149.49" y="2" width="75.16" height="75.06" maskUnits="userSpaceOnUse"><g class="cls-5"><path class="cls-6" d="M186.65,76.67a.43.43,0,0,0,.85,0,43.24,43.24,0,0,1,36.74-36.74.42.42,0,0,0,0-.85A43.24,43.24,0,0,1,187.5,2.35a.43.43,0,0,0-.43-.35.42.42,0,0,0-.42.35,43.24,43.24,0,0,1-36.74,36.74.48.48,0,0,0-.42.42c0,.27.21.38.42.42A43.24,43.24,0,0,1,186.65,76.67Z"/></g></mask><linearGradient id="名称未設定グラデーション_9-3" x1="149.49" y1="39.53" x2="224.65" y2="39.53" xlink:href="#名称未設定グラデーション_9"/></defs><title>ico_ispc</title><path class="cls-7" d="M181.66,83.62A44.22,44.22,0,0,0,143,44.94a44.22,44.22,0,0,0,38.68,38.68Z"/><path class="cls-7" d="M93.86,94.06a44.22,44.22,0,0,0,38.68,38.68A44.22,44.22,0,0,0,93.86,94.06Z"/><path class="cls-7" d="M93.86,192.28A44.22,44.22,0,0,0,132.54,231a44.22,44.22,0,0,0-38.68-38.68Z"/><path class="cls-7" d="M181.66,181.85A44.22,44.22,0,0,0,143,143.17a44.22,44.22,0,0,0,38.68,38.68Z"/><path class="cls-7" d="M169,218.32A43.86,43.86,0,0,1,143,231a44.22,44.22,0,0,1,38.68-38.68A43.87,43.87,0,0,1,169,218.32Z"/><path class="cls-7" d="M106.51,57.59a43.86,43.86,0,0,1,26-12.64A44.22,44.22,0,0,1,93.86,83.62,43.87,43.87,0,0,1,106.51,57.59Z"/><g class="cls-8"><path class="cls-9" d="M137.34,126a.43.43,0,0,0,.85,0,43.24,43.24,0,0,1,36.74-36.74.42.42,0,0,0,0-.85,43.24,43.24,0,0,1-36.74-36.74.43.43,0,0,0-.43-.35.42.42,0,0,0-.42.35A43.24,43.24,0,0,1,100.6,88.39a.48.48,0,0,0-.42.42c0,.27.21.38.42.42A43.24,43.24,0,0,1,137.34,126Z"/></g><path class="cls-10" d="M137.34,224.21a.43.43,0,0,0,.85,0,43.24,43.24,0,0,1,36.74-36.74.42.42,0,0,0,0-.85,43.24,43.24,0,0,1-36.74-36.74.43.43,0,0,0-.43-.35.42.42,0,0,0-.42.35,43.24,43.24,0,0,1-36.74,36.74.48.48,0,0,0-.42.42c0,.27.21.38.42.42A43.24,43.24,0,0,1,137.34,224.21Z"/><g class="cls-11"><path class="cls-12" d="M149.73,137.54a.43.43,0,0,0,0,.85,43.24,43.24,0,0,1,36.74,36.74.42.42,0,0,0,.85,0,43.24,43.24,0,0,1,36.74-36.74.43.43,0,0,0,.35-.43.42.42,0,0,0-.35-.42,43.24,43.24,0,0,1-36.74-36.74.48.48,0,0,0-.42-.42c-.27,0-.38.21-.42.42A43.24,43.24,0,0,1,149.73,137.54Z"/></g><path class="cls-13" d="M88.56,273a.43.43,0,0,0,.85,0,43.24,43.24,0,0,1,36.74-36.74.42.42,0,0,0,0-.85,43.24,43.24,0,0,1-36.74-36.74.43.43,0,0,0-.43-.35.42.42,0,0,0-.42.35,43.24,43.24,0,0,1-36.74,36.74.48.48,0,0,0-.42.42c0,.27.21.38.42.42A43.24,43.24,0,0,1,88.56,273Z"/><path class="cls-14" d="M51.5,137.54a.43.43,0,0,0,0,.85,43.24,43.24,0,0,1,36.74,36.74.42.42,0,0,0,.85,0,43.24,43.24,0,0,1,36.74-36.74.43.43,0,0,0,.35-.43.42.42,0,0,0-.35-.42A43.24,43.24,0,0,1,89.09,100.8a.48.48,0,0,0-.42-.42c-.27,0-.38.21-.42.42A43.24,43.24,0,0,1,51.5,137.54Z"/><g class="cls-15"><path class="cls-16" d="M186.65,76.67a.43.43,0,0,0,.85,0,43.24,43.24,0,0,1,36.74-36.74.42.42,0,0,0,0-.85A43.24,43.24,0,0,1,187.5,2.35a.43.43,0,0,0-.43-.35.42.42,0,0,0-.42.35,43.24,43.24,0,0,1-36.74,36.74.48.48,0,0,0-.42.42c0,.27.21.38.42.42A43.24,43.24,0,0,1,186.65,76.67Z"/></g></svg>